<svg width="30" height="30" viewBox="0 0 30 30" fill="none" xmlns="http://www.w3.org/2000/svg">
<path fill-rule="evenodd" clip-rule="evenodd" d="M25.1606 4.57697C25.4382 2.96822 25.8455 1.95658 26.2967 1.95466H26.2976C27.1389 1.95756 27.8208 5.46588 27.8208 9.79743C27.8208 14.129 27.1379 17.6402 26.2957 17.6402C25.9504 17.6402 25.6318 17.044 25.3753 16.0449C24.9699 19.7022 24.1287 22.2162 23.1548 22.2162C22.4013 22.2162 21.7251 20.706 21.2711 18.3243C20.9611 22.8539 20.181 26.0676 19.2691 26.0676C18.6968 26.0676 18.175 24.7941 17.7888 22.7205C17.3243 27.0009 16.2512 30 14.9999 30C13.7485 30 12.6735 27.0018 12.211 22.7205C11.8276 24.7941 11.3058 26.0676 10.7307 26.0676C9.81885 26.0676 9.04056 22.8539 8.72866 18.3243C8.27466 20.706 7.60032 22.2162 6.84491 22.2162C5.87205 22.2162 5.02984 19.703 4.62448 16.0449C4.36981 17.0469 4.04934 17.6402 3.70407 17.6402C2.86187 17.6402 2.17894 14.129 2.17894 9.79743C2.17894 5.46588 2.86187 1.95466 3.70407 1.95466C4.15616 1.95466 4.56057 2.96918 4.84099 4.57697C5.29023 1.80296 6.01988 0 6.84491 0C7.82447 0 8.67334 2.54984 9.07489 6.25239C9.46786 3.55761 10.064 1.83967 10.7316 1.83967C11.6673 1.83967 12.4627 5.21853 12.7575 9.93174C13.3116 7.51523 14.1138 5.99923 15.0018 5.99923C15.8897 5.99923 16.6919 7.51619 17.2451 9.93174C17.5408 5.21853 18.3353 1.83967 19.271 1.83967C19.9376 1.83967 20.5328 3.55761 20.9277 6.25239C21.3284 2.54984 22.1773 0 23.1568 0C23.979 0 24.7114 1.80393 25.1606 4.57697ZM-0.000366211 9.02605C-0.000366211 7.08975 0.386876 5.51966 0.864727 5.51966C1.34258 5.51966 1.72982 7.08975 1.72982 9.02605C1.72982 10.9623 1.34258 12.5325 0.864727 12.5325C0.386876 12.5325 -0.000366211 10.9623 -0.000366211 9.02605ZM28.2693 9.02605C28.2693 7.08975 28.6565 5.51966 29.1344 5.51966C29.6122 5.51966 29.9995 7.08975 29.9995 9.02605C29.9995 10.9623 29.6122 12.5325 29.1344 12.5325C28.6565 12.5325 28.2693 10.9623 28.2693 9.02605Z" fill="#A238FF"/>
</svg>
